<?xml version="1.0" encoding="UTF-8"?>
<svg xmlns="http://www.w3.org/2000/svg" viewBox="0 0 128 128" width="128" height="128">
  <rect width="128" height="128" rx="22" fill="#f4f1e8"></rect>
  <rect x="30" y="30" width="14" height="14" rx="2" fill="#0d1117" opacity="0.35"></rect><rect x="48" y="30" width="14" height="14" rx="2" fill="#0d1117" opacity="0.55"></rect><rect x="66" y="30" width="14" height="14" rx="2" fill="#0d1117" opacity="0.8"></rect><rect x="84" y="30" width="14" height="14" rx="2" fill="#0d1117" opacity="0.5"></rect><rect x="30" y="48" width="14" height="14" rx="2" fill="#0d1117" opacity="0.55"></rect><rect x="48" y="48" width="14" height="14" rx="2" fill="#0d1117" opacity="0.8"></rect><rect x="66" y="48" width="14" height="14" rx="2" fill="#f5d547"></rect><rect x="84" y="48" width="14" height="14" rx="2" fill="#0d1117" opacity="0.65"></rect><rect x="30" y="66" width="14" height="14" rx="2" fill="#0d1117" opacity="0.45"></rect><rect x="48" y="66" width="14" height="14" rx="2" fill="#0d1117" opacity="0.65"></rect><rect x="66" y="66" width="14" height="14" rx="2" fill="#0d1117" opacity="0.8"></rect><rect x="84" y="66" width="14" height="14" rx="2" fill="#0d1117" opacity="0.55"></rect><rect x="30" y="84" width="14" height="14" rx="2" fill="#0d1117" opacity="0.3"></rect><rect x="48" y="84" width="14" height="14" rx="2" fill="#0d1117" opacity="0.5"></rect><rect x="66" y="84" width="14" height="14" rx="2" fill="#0d1117" opacity="0.55"></rect><rect x="84" y="84" width="14" height="14" rx="2" fill="#0d1117" opacity="0.4"></rect>
</svg>